<?xml version="1.0" standalone="no"?>
<!DOCTYPE svg PUBLIC "-//W3C//DTD SVG 1.1//EN" "http://www.w3.org/Graphics/SVG/1.1/DTD/svg11.dtd">
<svg xmlns="http://www.w3.org/2000/svg" data-v-fde0c5aa="" viewBox="0 0 300 300" class="font" width="300" height="300"><!----><defs data-v-fde0c5aa=""><!----></defs><rect data-v-fde0c5aa="" fill="transparent" x="0" y="0" width="300px" height="300px" class="logo-background-square"/><defs data-v-fde0c5aa=""><linearGradient data-v-fde0c5aa="" gradientTransform="rotate(25)" id="f98bd175-ca78-4d8f-a5fb-7dead2e615e9" x1="0%" y1="0%" x2="100%" y2="0%"><stop data-v-fde0c5aa="" offset="0%" stop-color="#000A68" stop-opacity="1"/><stop data-v-fde0c5aa="" offset="100%" stop-color="#00C4EE" stop-opacity="1"/></linearGradient></defs><g data-v-fde0c5aa="" id="dae48991-8256-4280-91b6-cae5add76bdc" fill="url(#f98bd175-ca78-4d8f-a5fb-7dead2e615e9)" transform="matrix(5.226894730397699,0,0,5.226894730397699,37.7001663310869,99.71727204555594)"><path d="M3.06 4.75L3.06 8.47L2.19 8.47L2.19 4.75L2.19 4.75Q2.19 4.59 2.15 4.48L2.15 4.48L2.15 4.48Q2.11 4.38 2.05 4.32L2.05 4.32L2.05 4.32Q1.99 4.26 1.91 4.23L1.91 4.23L1.91 4.23Q1.83 4.21 1.75 4.21L1.75 4.21L1.75 4.21Q1.67 4.21 1.59 4.23L1.59 4.23L1.59 4.23Q1.51 4.26 1.45 4.32L1.45 4.32L1.45 4.32Q1.39 4.38 1.35 4.48L1.35 4.48L1.35 4.48Q1.31 4.59 1.31 4.75L1.31 4.75L1.31 14.38L1.31 14.38Q1.31 14.46 1.32 14.57L1.32 14.57L1.32 14.57Q1.33 14.68 1.37 14.79L1.37 14.79L1.37 14.79Q1.41 14.89 1.50 14.96L1.50 14.96L1.50 14.96Q1.59 15.03 1.75 15.03L1.75 15.03L1.75 15.03Q1.91 15.03 2.00 14.96L2.00 14.96L2.00 14.96Q2.09 14.89 2.13 14.79L2.13 14.79L2.13 14.79Q2.17 14.68 2.18 14.57L2.18 14.57L2.18 14.57Q2.19 14.46 2.19 14.38L2.19 14.38L2.19 9.78L3.06 9.78L3.06 14.38L3.06 14.38Q3.06 14.46 3.04 14.67L3.04 14.67L3.04 14.67Q3.02 14.89 2.90 15.11L2.90 15.11L2.90 15.11Q2.78 15.34 2.51 15.51L2.51 15.51L2.51 15.51Q2.24 15.69 1.75 15.69L1.75 15.69L1.75 15.69Q1.26 15.69 0.99 15.51L0.99 15.51L0.99 15.51Q0.72 15.34 0.60 15.11L0.60 15.11L0.60 15.11Q0.48 14.89 0.46 14.67L0.46 14.67L0.46 14.67Q0.44 14.46 0.44 14.38L0.44 14.38L0.44 4.75L0.44 4.75Q0.44 4.44 0.55 4.21L0.55 4.21L0.55 4.21Q0.67 3.98 0.86 3.83L0.86 3.83L0.86 3.83Q1.05 3.69 1.28 3.62L1.28 3.62L1.28 3.62Q1.51 3.55 1.75 3.55L1.75 3.55L1.75 3.55Q2.00 3.55 2.24 3.63L2.24 3.63L2.24 3.63Q2.47 3.71 2.66 3.86L2.66 3.86L2.66 3.86Q2.84 4.01 2.95 4.23L2.95 4.23L2.95 4.23Q3.06 4.46 3.06 4.75L3.06 4.75ZM5.47 14.49L5.47 4.97L6.34 4.97L6.34 14.49L6.34 14.49Q6.34 14.77 6.24 14.98L6.24 14.98L6.24 14.98Q6.14 15.19 5.97 15.32L5.97 15.32L5.97 15.32Q5.80 15.46 5.58 15.52L5.58 15.52L5.58 15.52Q5.37 15.58 5.14 15.58L5.14 15.58L5.14 15.58Q4.92 15.58 4.70 15.52L4.70 15.52L4.70 15.52Q4.48 15.46 4.31 15.32L4.31 15.32L4.31 15.32Q4.14 15.19 4.04 14.98L4.04 14.98L4.04 14.98Q3.94 14.77 3.94 14.49L3.94 14.49L3.94 4.97L4.81 4.97L4.81 14.49L4.81 14.49Q4.81 14.73 4.92 14.83L4.92 14.83L4.92 14.83Q5.02 14.92 5.14 14.92L5.14 14.92L5.14 14.92Q5.26 14.92 5.37 14.83L5.37 14.83L5.37 14.83Q5.47 14.73 5.47 14.49L5.47 14.49ZM8.09 5.63L8.09 9.78L8.75 9.78L8.75 9.78Q8.83 9.78 8.88 9.74L8.88 9.74L8.88 9.74Q8.92 9.71 8.94 9.65L8.94 9.65L8.94 9.65Q8.96 9.58 8.97 9.51L8.97 9.51L8.97 9.51Q8.97 9.43 8.97 9.34L8.97 9.34L8.97 6.06L8.97 6.06Q8.97 5.90 8.92 5.81L8.92 5.81L8.92 5.81Q8.88 5.72 8.78 5.68L8.78 5.68L8.78 5.68Q8.67 5.64 8.51 5.63L8.51 5.63L8.51 5.63Q8.34 5.63 8.09 5.63L8.09 5.63ZM8.97 14.38L8.97 10.88L8.97 10.88Q8.97 10.79 8.97 10.72L8.97 10.72L8.97 10.72Q8.96 10.64 8.94 10.58L8.94 10.58L8.94 10.58Q8.92 10.51 8.88 10.48L8.88 10.48L8.88 10.48Q8.83 10.44 8.75 10.44L8.75 10.44L8.09 10.44L8.09 14.81L8.09 14.81Q8.24 14.81 8.40 14.81L8.40 14.81L8.40 14.81Q8.56 14.80 8.69 14.76L8.69 14.76L8.69 14.76Q8.81 14.72 8.89 14.64L8.89 14.64L8.89 14.64Q8.97 14.55 8.97 14.38L8.97 14.38ZM9.84 6.06L9.84 9.34L9.84 9.34Q9.84 9.67 9.67 9.85L9.67 9.85L9.67 9.85Q9.50 10.03 9.13 10.12L9.13 10.12L9.13 10.12Q9.50 10.19 9.67 10.37L9.67 10.37L9.67 10.37Q9.84 10.55 9.84 10.88L9.84 10.88L9.84 14.38L9.84 14.38Q9.84 14.79 9.69 15.01L9.69 15.01L9.69 15.01Q9.54 15.23 9.30 15.33L9.30 15.33L9.30 15.33Q9.05 15.44 8.74 15.45L8.74 15.45L8.74 15.45Q8.42 15.47 8.09 15.47L8.09 15.47L7.22 15.47L7.22 4.97L8.09 4.97L8.09 4.97Q8.50 4.97 8.83 4.99L8.83 4.99L8.83 4.99Q9.15 5.00 9.38 5.11L9.38 5.11L9.38 5.11Q9.60 5.21 9.72 5.43L9.72 5.43L9.72 5.43Q9.84 5.65 9.84 6.06L9.84 6.06ZM12.47 4.97L12.47 5.63L11.59 5.63L11.59 9.56L12.47 9.56L12.47 10.22L11.59 10.22L11.59 14.81L12.47 14.81L12.47 15.47L10.72 15.47L10.72 4.97L12.47 4.97ZM16.28 14.38L16.28 12.59L16.28 12.59Q16.28 11.87 16.20 11.35L16.20 11.35L16.20 11.35Q16.13 10.83 16.00 10.44L16.00 10.44L16.00 10.44Q15.88 10.06 15.72 9.77L15.72 9.77L15.72 9.77Q15.57 9.48 15.40 9.23L15.40 9.23L15.40 9.23Q15.24 8.98 15.08 8.72L15.08 8.72L15.08 8.72Q14.92 8.47 14.80 8.15L14.80 8.15L14.80 8.15Q14.68 7.83 14.60 7.41L14.60 7.41L14.60 7.41Q14.53 6.99 14.53 6.40L14.53 6.40L14.53 4.75L14.53 4.75Q14.53 4.59 14.58 4.38L14.58 4.38L14.58 4.38Q14.63 4.17 14.77 3.99L14.77 3.99L14.77 3.99Q14.92 3.81 15.17 3.68L15.17 3.68L15.17 3.68Q15.43 3.55 15.84 3.55L15.84 3.55L15.84 3.55Q16.25 3.55 16.51 3.68L16.51 3.68L16.51 3.68Q16.76 3.81 16.91 3.99L16.91 3.99L16.91 3.99Q17.05 4.17 17.10 4.38L17.10 4.38L17.10 4.38Q17.15 4.59 17.15 4.75L17.15 4.75L17.15 7.81L16.28 7.81L16.28 4.75L16.28 4.75Q16.28 4.59 16.24 4.48L16.24 4.48L16.24 4.48Q16.20 4.38 16.14 4.32L16.14 4.32L16.14 4.32Q16.08 4.26 16.00 4.23L16.00 4.23L16.00 4.23Q15.92 4.21 15.84 4.21L15.84 4.21L15.84 4.21Q15.76 4.21 15.68 4.23L15.68 4.23L15.68 4.23Q15.60 4.26 15.54 4.32L15.54 4.32L15.54 4.32Q15.48 4.38 15.44 4.48L15.44 4.48L15.44 4.48Q15.40 4.59 15.40 4.75L15.40 4.75L15.40 6.08L15.40 6.08Q15.40 6.86 15.53 7.38L15.53 7.38L15.53 7.38Q15.66 7.90 15.86 8.28L15.86 8.28L15.86 8.28Q16.05 8.67 16.28 8.98L16.28 8.98L16.28 8.98Q16.50 9.30 16.70 9.66L16.70 9.66L16.70 9.66Q16.89 10.03 17.02 10.51L17.02 10.51L17.02 10.51Q17.15 10.99 17.15 11.71L17.15 11.71L17.15 14.38L17.15 14.38Q17.15 14.46 17.13 14.67L17.13 14.67L17.13 14.67Q17.11 14.89 16.99 15.11L16.99 15.11L16.99 15.11Q16.86 15.34 16.60 15.51L16.60 15.51L16.60 15.51Q16.33 15.69 15.84 15.69L15.84 15.69L15.84 15.69Q15.35 15.69 15.08 15.51L15.08 15.51L15.08 15.51Q14.81 15.34 14.69 15.11L14.69 15.11L14.69 15.11Q14.57 14.89 14.55 14.67L14.55 14.67L14.55 14.67Q14.53 14.46 14.53 14.38L14.53 14.38L14.53 10.44L15.40 10.44L15.40 14.38L15.40 14.38Q15.40 14.46 15.41 14.57L15.41 14.57L15.41 14.57Q15.42 14.68 15.46 14.79L15.46 14.79L15.46 14.79Q15.50 14.89 15.59 14.96L15.59 14.96L15.59 14.96Q15.67 15.03 15.84 15.03L15.84 15.03L15.84 15.03Q16.00 15.03 16.09 14.96L16.09 14.96L16.09 14.96Q16.18 14.89 16.22 14.79L16.22 14.79L16.22 14.79Q16.26 14.68 16.27 14.57L16.27 14.57L16.27 14.57Q16.28 14.46 16.28 14.38L16.28 14.38ZM17.48 4.97L20.10 4.97L20.10 5.63L19.23 5.63L19.23 15.47L18.35 15.47L18.35 5.63L17.48 5.63L17.48 4.97ZM22.18 4.97L23.06 15.47L22.18 15.47L22.05 13.20L21.44 13.20L21.31 15.47L20.43 15.47L21.31 4.97L22.18 4.97ZM21.49 12.49L22.00 12.49L21.75 7.16L21.49 12.49ZM23.39 4.97L26.01 4.97L26.01 5.63L25.14 5.63L25.14 15.47L24.26 15.47L24.26 5.63L23.39 5.63L23.39 4.97ZM26.67 4.97L27.54 4.97L27.54 15.47L26.67 15.47L26.67 4.97ZM30.93 5.95L30.93 8.69L30.06 8.69L30.06 5.95L30.06 5.95Q30.06 5.71 29.96 5.61L29.96 5.61L29.96 5.61Q29.85 5.52 29.73 5.52L29.73 5.52L29.73 5.52Q29.61 5.52 29.50 5.61L29.50 5.61L29.50 5.61Q29.40 5.71 29.40 5.95L29.40 5.95L29.40 5.95Q29.40 6.69 29.47 7.30L29.47 7.30L29.47 7.30Q29.54 7.92 29.65 8.44L29.65 8.44L29.65 8.44Q29.76 8.96 29.89 9.38L29.89 9.38L29.89 9.38Q30.03 9.81 30.17 10.17L30.17 10.17L30.17 10.17Q30.28 10.45 30.41 10.81L30.41 10.81L30.41 10.81Q30.54 11.18 30.66 11.70L30.66 11.70L30.66 11.70Q30.78 12.21 30.85 12.89L30.85 12.89L30.85 12.89Q30.93 13.58 30.93 14.49L30.93 14.49L30.93 14.49Q30.93 14.77 30.83 14.98L30.83 14.98L30.83 14.98Q30.73 15.19 30.56 15.32L30.56 15.32L30.56 15.32Q30.39 15.46 30.17 15.52L30.17 15.52L30.17 15.52Q29.96 15.58 29.73 15.58L29.73 15.58L29.73 15.58Q29.50 15.58 29.29 15.52L29.29 15.52L29.29 15.52Q29.07 15.46 28.90 15.32L28.90 15.32L28.90 15.32Q28.73 15.19 28.63 14.98L28.63 14.98L28.63 14.98Q28.53 14.77 28.53 14.49L28.53 14.49L28.53 11.75L29.40 11.75L29.40 14.49L29.40 14.49Q29.40 14.73 29.50 14.83L29.50 14.83L29.50 14.83Q29.61 14.92 29.73 14.92L29.73 14.92L29.73 14.92Q29.85 14.92 29.96 14.83L29.96 14.83L29.96 14.83Q30.06 14.73 30.06 14.49L30.06 14.49L30.06 14.49Q30.06 13.60 29.97 12.94L29.97 12.94L29.97 12.94Q29.89 12.27 29.76 11.76L29.76 11.76L29.76 11.76Q29.63 11.25 29.47 10.87L29.47 10.87L29.47 10.87Q29.32 10.49 29.19 10.17L29.19 10.17L29.19 10.17Q29.06 9.85 28.94 9.45L28.94 9.45L28.94 9.45Q28.82 9.04 28.73 8.53L28.73 8.53L28.73 8.53Q28.64 8.02 28.58 7.38L28.58 7.38L28.58 7.38Q28.53 6.74 28.53 5.95L28.53 5.95L28.53 5.95Q28.53 5.67 28.63 5.46L28.63 5.46L28.63 5.46Q28.73 5.26 28.90 5.12L28.90 5.12L28.90 5.12Q29.07 4.99 29.29 4.93L29.29 4.93L29.29 4.93Q29.50 4.86 29.73 4.86L29.73 4.86L29.73 4.86Q29.96 4.86 30.17 4.93L30.17 4.93L30.17 4.93Q30.39 4.99 30.56 5.12L30.56 5.12L30.56 5.12Q30.73 5.26 30.83 5.46L30.83 5.46L30.83 5.46Q30.93 5.67 30.93 5.95L30.93 5.95ZM31.48 4.97L34.10 4.97L34.10 5.63L33.23 5.63L33.23 15.47L32.35 15.47L32.35 5.63L31.48 5.63L31.48 4.97ZM34.76 4.97L35.64 4.97L35.64 15.47L34.76 15.47L34.76 4.97ZM39.25 5.95L39.25 9.34L38.37 9.34L38.37 5.95L38.37 5.95Q38.37 5.72 38.25 5.62L38.25 5.62L38.25 5.62Q38.14 5.52 37.99 5.52L37.99 5.52L37.99 5.52Q37.90 5.52 37.81 5.55L37.81 5.55L37.81 5.55Q37.73 5.58 37.66 5.64L37.66 5.64L37.66 5.64Q37.58 5.70 37.54 5.78L37.54 5.78L37.54 5.78Q37.50 5.86 37.50 5.95L37.50 5.95L37.50 14.49L37.50 14.49Q37.50 14.58 37.54 14.66L37.54 14.66L37.54 14.66Q37.58 14.75 37.66 14.80L37.66 14.80L37.66 14.80Q37.73 14.86 37.81 14.89L37.81 14.89L37.81 14.89Q37.90 14.92 37.99 14.92L37.99 14.92L37.99 14.92Q38.14 14.92 38.25 14.82L38.25 14.82L38.25 14.82Q38.37 14.72 38.37 14.49L38.37 14.49L38.37 10.66L39.25 10.66L39.25 14.49L39.25 14.49Q39.25 14.76 39.13 14.97L39.13 14.97L39.13 14.97Q39.01 15.18 38.83 15.32L38.83 15.32L38.83 15.32Q38.64 15.46 38.40 15.53L38.40 15.53L38.40 15.53Q38.17 15.60 37.92 15.60L37.92 15.60L37.92 15.60Q37.67 15.60 37.44 15.53L37.44 15.53L37.44 15.53Q37.21 15.46 37.02 15.32L37.02 15.32L37.02 15.32Q36.84 15.18 36.73 14.97L36.73 14.97L36.73 14.97Q36.62 14.77 36.62 14.49L36.62 14.49L36.62 5.95L36.62 5.95Q36.62 5.68 36.73 5.47L36.73 5.47L36.73 5.47Q36.85 5.26 37.03 5.12L37.03 5.12L37.03 5.12Q37.21 4.98 37.45 4.91L37.45 4.91L37.45 4.91Q37.69 4.84 37.94 4.84L37.94 4.84L37.94 4.84Q38.19 4.84 38.42 4.91L38.42 4.91L38.42 4.91Q38.65 4.98 38.83 5.12L38.83 5.12L38.83 5.12Q39.02 5.26 39.13 5.47L39.13 5.47L39.13 5.47Q39.25 5.67 39.25 5.95L39.25 5.95ZM41.65 4.97L42.53 15.47L41.65 15.47L41.51 13.20L40.91 13.20L40.78 15.47L39.90 15.47L40.78 4.97L41.65 4.97ZM40.95 12.49L41.47 12.49L41.21 7.16L40.95 12.49Z"/></g><!----><!----></svg>